<svg width="150" height="32" viewBox="0 0 150 32" fill="none" xmlns="http://www.w3.org/2000/svg">
<path d="M13.9662 17.4363C13.3744 18.8942 12.1317 20.5308 8.49216 20.5308C2.89976 20.5308 0 16.6924 0 10.2654C0 4.04664 3.60991 0 10.2379 0C16.4221 0 19.4107 3.09449 19.4107 7.76598V7.97426H13.4632V7.885C13.4632 6.06996 12.6939 5.44511 9.85328 5.44511C6.92392 5.44511 5.97706 6.24849 5.97706 10.2654C5.97706 14.6988 7.04228 15.3832 10.3563 15.3832C13.2265 15.3832 13.9662 14.9071 14.055 13.6872H9.37985V9.49175H19.4402V20.2332H14.2325V17.4363H13.9662Z" fill="#43AA13"/>
<path d="M37.3504 15.2047V20.2332H21.3425V0.297547H37.3504V5.32609H26.9053V7.73623H36.9066V12.735H26.9053V15.2047H37.3504Z" fill="#43AA13"/>
<path d="M44.9144 11.9316V20.2332H39.3516V0.297547H45.2991L50.8323 9.25372L52.1342 11.6936H52.5189L52.223 9.25372V0.297547H57.7562V20.2332H51.8383L46.601 11.9316L45.0032 9.10494H44.6185L44.9144 11.9316Z" fill="#43AA13"/>
<path fillRule="evenodd" clipRule="evenodd" d="M79.4312 10.2654C79.4312 16.4841 75.7621 20.5308 69.4891 20.5308C63.1866 20.5308 59.5175 16.4841 59.5175 10.2654C59.5175 4.04664 63.1866 0 69.4891 0C75.7621 0 79.4312 4.04664 79.4312 10.2654ZM65.4946 10.2654C65.4946 14.1037 66.4118 15.0856 69.4891 15.0856C72.5368 15.0856 73.4541 14.1037 73.4541 10.2654C73.4541 6.42702 72.5368 5.44511 69.4891 5.44511C66.4118 5.44511 65.4946 6.42702 65.4946 10.2654Z" fill="#43AA13"/>
<path fillRule="evenodd" clipRule="evenodd" d="M86.0211 16.3948L84.7487 20.2332H79.0084L85.9027 0.297547H93.9806L100.845 20.2332H94.7499L93.5368 16.3948H86.0211ZM89.631 5.14757L88.0035 10.3546L87.6189 11.5151H91.9685L91.6135 10.3546L90.0452 5.14757H89.631Z" fill="#43AA13"/>
<path d="M117.42 15.2047V20.2332H101.412V0.297547H117.42V5.32609H106.975V7.73623H116.976V12.735H106.975V15.2047H117.42Z" fill="#43AA13"/>
<path d="M135.967 14.0442C135.967 17.5255 133.6 20.5308 127.652 20.5308C121.971 20.5308 119.131 17.8528 119.131 13.6872V13.3004H124.605V13.5384C124.605 15.1749 125.197 15.5022 127.86 15.5022C129.96 15.5022 130.404 15.1749 130.404 14.312C130.404 13.3896 130.108 13.0921 128.747 12.8838L124.427 12.1994C120.403 11.5746 118.746 9.43224 118.746 6.33775C118.746 2.79694 121.439 0 127.268 0C132.801 0 135.434 2.79694 135.434 6.51628V7.02211H129.96V6.66506C129.96 5.50462 129.398 5.02855 126.913 5.02855C124.812 5.02855 124.279 5.3856 124.279 6.12947C124.279 6.75432 124.664 7.02211 125.818 7.2304L130.138 8.00402C134.34 8.74789 135.967 10.9497 135.967 14.0442Z" fill="#43AA13"/>
<path d="M140.955 9.0752L150 11.0088L148.078 20.104L139.033 18.1704L140.955 9.0752Z" fill="#43AA13"/>
<path d="M3.03257 31.126C3.32102 31.126 3.6007 31.0844 3.8716 31.0012C4.1425 30.9154 4.35195 30.8069 4.49994 30.6758V29.938H3.20564V29.1132H5.51581V31.073C5.23488 31.3631 4.86866 31.5901 4.41716 31.7541C3.96817 31.918 3.49661 32 3.00247 32C2.42806 32 1.94019 31.8928 1.53886 31.6784C1.14003 31.4615 0.836527 31.1475 0.628336 30.7363C0.420145 30.3226 0.316049 29.822 0.316049 29.2343C0.316049 28.3565 0.549323 27.6843 1.01587 27.2176C1.48242 26.7485 2.1534 26.5139 3.0288 26.5139C3.65087 26.5139 4.16006 26.6299 4.55637 26.862C4.95269 27.0915 5.23488 27.4384 5.40293 27.9025L4.37954 28.2127C4.26917 27.9428 4.0961 27.7385 3.86031 27.5998C3.62453 27.4611 3.34736 27.3917 3.0288 27.3917C2.50707 27.3917 2.11076 27.5506 1.83986 27.8684C1.56896 28.1862 1.43351 28.6415 1.43351 29.2343C1.43351 29.8371 1.57272 30.3037 1.85114 30.6342C2.13208 30.9621 2.52588 31.126 3.03257 31.126Z" fill="#43AA13"/>
<path d="M10.913 31.0617V31.9243H6.58992V26.5934H10.7588V27.456H7.69986V28.7954H10.5293V29.658H7.69986V31.0617H10.913Z" fill="#43AA13"/>
<path d="M12.7923 31.9243V28.7802C12.7923 28.6592 12.786 28.5192 12.7735 28.3603C12.7635 28.1988 12.7472 28.0185 12.7246 27.8192L15.0348 31.9243H16.3366V26.5934H15.3508V29.6921C15.3508 30.0023 15.3734 30.3491 15.4185 30.7325L13.0745 26.5934H11.8065V31.9243H12.7923Z" fill="#43AA13"/>
<path fillRule="evenodd" clipRule="evenodd" d="M22.6067 29.2343C22.6067 29.7892 22.4951 30.2747 22.2718 30.6909C22.0511 31.1046 21.7388 31.4262 21.335 31.6557C20.9336 31.8852 20.4621 32 19.9203 32C19.3659 32 18.8894 31.889 18.4905 31.6671C18.0917 31.4426 17.7857 31.1235 17.5725 30.7098C17.3593 30.2962 17.2527 29.8043 17.2527 29.2343C17.2527 28.6642 17.358 28.1761 17.5687 27.77C17.7819 27.3639 18.0879 27.0537 18.4868 26.8393C18.8881 26.6224 19.3684 26.5139 19.9278 26.5139C20.4897 26.5139 20.97 26.6236 21.3688 26.8431C21.7677 27.06 22.0737 27.3715 22.2869 27.7776C22.5001 28.1837 22.6067 28.6693 22.6067 29.2343ZM21.4742 29.2343C21.4742 28.6592 21.3387 28.2089 21.0678 27.8835C20.7969 27.5556 20.4169 27.3917 19.9278 27.3917C19.4311 27.3917 19.0474 27.5544 18.7765 27.8798C18.5056 28.2026 18.3701 28.6541 18.3701 29.2343C18.3701 29.6227 18.4328 29.9582 18.5583 30.2407C18.6837 30.5232 18.8618 30.7414 19.0925 30.8952C19.3258 31.0466 19.6017 31.1222 19.9203 31.1222C20.4169 31.1222 20.7994 30.9583 21.0678 30.6304C21.3387 30.3025 21.4742 29.8371 21.4742 29.2343Z" fill="#43AA13"/>
<path fillRule="evenodd" clipRule="evenodd" d="M24.3129 31.9243L24.7832 30.5623H26.8037L27.274 31.9243H28.3726L26.4462 26.5934H25.1369L23.203 31.9243H24.3129ZM25.6862 27.7776C25.7314 27.6364 25.7665 27.5153 25.7916 27.4144C25.8242 27.5178 25.8555 27.6225 25.8856 27.7284C25.9157 27.8344 25.9483 27.939 25.9834 28.0425L26.5553 29.7223H25.0315L25.5884 28.0765C25.6085 28.0185 25.6411 27.9189 25.6862 27.7776Z" fill="#43AA13"/>
<path d="M35.4309 31.0617V31.9243H31.1078V26.5934H35.2766V27.456H32.2177V28.7954H35.0471V29.658H32.2177V31.0617H35.4309Z" fill="#43AA13"/>
<path d="M37.3102 31.9243V28.7802C37.3102 28.6592 37.3039 28.5192 37.2914 28.3603C37.2813 28.1988 37.265 28.0185 37.2425 27.8192L39.5526 31.9243H40.8545V26.5934H39.8687V29.6921C39.8687 30.0023 39.8913 30.3491 39.9364 30.7325L37.5924 26.5934H36.3244V31.9243H37.3102Z" fill="#43AA13"/>
<path d="M44.3629 27.456V31.9243H43.253V27.456H41.541V26.5934H46.0786V27.456H44.3629Z" fill="#43AA13"/>
<path fillRule="evenodd" clipRule="evenodd" d="M47.8676 31.9243V29.9002H49.1694L50.3997 31.9243H51.6489L50.2154 29.6845C50.5741 29.5987 50.8588 29.4209 51.0695 29.151C51.2802 28.8786 51.3855 28.5557 51.3855 28.1824C51.3855 27.6704 51.2137 27.2782 50.8701 27.0058C50.5264 26.7308 50.0385 26.5934 49.4064 26.5934H46.7577V31.9243H47.8676ZM50.0235 27.6528C50.1865 27.7814 50.2681 27.9731 50.2681 28.2278C50.2681 28.4826 50.1878 28.6806 50.0273 28.8219C49.8667 28.9631 49.6309 29.0337 49.3199 29.0337H47.8676V27.4598H49.2898C49.6159 27.4598 49.8605 27.5241 50.0235 27.6528Z" fill="#43AA13"/>
<path d="M56.7263 31.0617V31.9243H52.4032V26.5934H56.572V27.456H53.5131V28.7954H56.3425V29.658H53.5131V31.0617H56.7263Z" fill="#43AA13"/>
<path fillRule="evenodd" clipRule="evenodd" d="M61.7435 29.2002C61.9015 28.9328 61.9805 28.6264 61.9805 28.2808C61.9805 27.7436 61.8087 27.3286 61.4651 27.036C61.1239 26.7409 60.6361 26.5934 60.0015 26.5934H57.6198V31.9243H58.7297V30.0477H60.0466C60.4454 30.0477 60.7891 29.9733 61.0775 29.8245C61.366 29.6731 61.588 29.465 61.7435 29.2002ZM59.8773 27.4598C60.5345 27.4598 60.8631 27.7398 60.8631 28.2997C60.8631 28.5873 60.7803 28.808 60.6147 28.9618C60.4492 29.1132 60.2134 29.1889 59.9074 29.1889H58.7297V27.4598H59.8773Z" fill="#43AA13"/>
<path fillRule="evenodd" clipRule="evenodd" d="M63.9464 29.9002V31.9243H62.8364V26.5934H65.4852C66.1173 26.5934 66.6052 26.7308 66.9488 27.0058C67.2925 27.2782 67.4643 27.6704 67.4643 28.1824C67.4643 28.5557 67.3589 28.8786 67.1482 29.151C66.9375 29.4209 66.6528 29.5987 66.2942 29.6845L67.7277 31.9243H66.4785L65.2482 29.9002H63.9464ZM66.3468 28.2278C66.3468 27.9731 66.2653 27.7814 66.1023 27.6528C65.9392 27.5241 65.6947 27.4598 65.3686 27.4598H63.9464V29.0337H65.3987C65.7097 29.0337 65.9455 28.9631 66.106 28.8219C66.2666 28.6806 66.3468 28.4826 66.3468 28.2278Z" fill="#43AA13"/>
<path d="M72.8051 31.9243V31.0617H69.5919V29.658H72.4213V28.7954H69.5919V27.456H72.6508V26.5934H68.482V31.9243H72.8051Z" fill="#43AA13"/>
<path d="M74.6844 28.7802V31.9243H73.6986V26.5934H74.9665L77.3106 30.7325C77.2654 30.3491 77.2428 30.0023 77.2428 29.6921V26.5934H78.2286V31.9243H76.9268L74.6166 27.8192C74.6392 28.0185 74.6555 28.1988 74.6655 28.3603C74.6781 28.5192 74.6844 28.6592 74.6844 28.7802Z" fill="#43AA13"/>
<path d="M83.6672 31.9243V31.0617H80.4541V29.658H83.2834V28.7954H80.4541V27.456H83.513V26.5934H79.3441V31.9243H83.6672Z" fill="#43AA13"/>
<path d="M86.7656 32C86.2789 32 85.8676 31.9205 85.5315 31.7616C85.1953 31.6002 84.9408 31.3656 84.7677 31.0579C84.5946 30.7477 84.5081 30.3706 84.5081 29.9266V26.5934H85.618V29.8396C85.618 30.2608 85.7171 30.5812 85.9152 30.8006C86.1159 31.0175 86.4094 31.126 86.7957 31.126C87.192 31.126 87.4967 31.0125 87.7099 30.7855C87.9231 30.556 88.0298 30.2281 88.0298 29.8018V26.5934H89.1397V29.8699C89.1397 30.3189 89.0456 30.7023 88.8575 31.0201C88.6719 31.3379 88.4022 31.5813 88.0486 31.7503C87.6949 31.9168 87.2672 32 86.7656 32Z" fill="#43AA13"/>
<path fillRule="evenodd" clipRule="evenodd" d="M91.3162 31.9243V29.9002H92.618L93.8484 31.9243H95.0975L93.664 29.6845C94.0227 29.5987 94.3074 29.4209 94.5181 29.151C94.7288 28.8786 94.8341 28.5557 94.8341 28.1824C94.8341 27.6704 94.6623 27.2782 94.3187 27.0058C93.975 26.7308 93.4872 26.5934 92.8551 26.5934H90.2063V31.9243H91.3162ZM93.4721 27.6528C93.6352 27.7814 93.7167 27.9731 93.7167 28.2278C93.7167 28.4826 93.6364 28.6806 93.4759 28.8219C93.3153 28.9631 93.0796 29.0337 92.7685 29.0337H91.3162V27.4598H92.7384C93.0645 27.4598 93.3091 27.5241 93.4721 27.6528Z" fill="#43AA13"/>
<path d="M100.175 30.3882C100.175 30.9104 99.9818 31.3101 99.5955 31.5876C99.2117 31.8625 98.6473 32 97.9024 32C96.5604 32 95.7791 31.5119 95.5583 30.5358L96.6307 30.358C96.7034 30.6405 96.8451 30.846 97.0558 30.9747C97.2665 31.1008 97.5587 31.1638 97.9325 31.1638C98.3213 31.1638 98.6122 31.1046 98.8054 30.986C98.9985 30.8675 99.0951 30.6896 99.0951 30.4525C99.0951 30.3012 99.0512 30.1763 98.9634 30.078C98.8756 29.9796 98.7502 29.8976 98.5871 29.8321C98.5069 29.7993 98.389 29.7639 98.2335 29.7261C98.078 29.6858 97.8848 29.6416 97.654 29.5937C97.3882 29.5306 97.18 29.4777 97.0295 29.4348C96.879 29.3894 96.7586 29.3465 96.6683 29.3061C96.578 29.2633 96.4902 29.2166 96.4049 29.1662C96.2168 29.0526 96.07 28.9013 95.9647 28.7121C95.8593 28.523 95.8067 28.2871 95.8067 28.0046C95.8067 27.5229 95.986 27.1546 96.3447 26.8998C96.7059 26.6426 97.2301 26.5139 97.9174 26.5139C98.5746 26.5139 99.0675 26.6173 99.3961 26.8242C99.7272 27.031 99.9404 27.3728 100.036 27.8495L98.9596 27.997C98.9044 27.7675 98.7916 27.5947 98.621 27.4787C98.4529 27.3627 98.2109 27.3047 97.8948 27.3047C97.5587 27.3047 97.3066 27.3576 97.1386 27.4636C96.9705 27.5695 96.8865 27.7284 96.8865 27.9403C96.8865 28.079 96.9216 28.1925 96.9919 28.2808C97.0646 28.3691 97.1712 28.4448 97.3117 28.5078C97.4446 28.5684 97.7293 28.6453 98.1657 28.7386C98.4191 28.7941 98.6373 28.8471 98.8204 28.8975C99.0035 28.9454 99.1503 28.9921 99.2606 29.0375C99.371 29.0854 99.4688 29.1359 99.5541 29.1889C99.6419 29.2418 99.7171 29.2986 99.7799 29.3591C99.9078 29.4827 100.006 29.6303 100.073 29.8018C100.141 29.9708 100.175 30.1663 100.175 30.3882Z" fill="#43AA13"/>
<path d="M102.178 31.9243V29.6391H104.489V31.9243H105.598V26.5934H104.489V28.7159H102.178V26.5934H101.068V31.9243H102.178Z" fill="#43AA13"/>
<path d="M107.824 26.5934V31.9243H106.714V26.5934H107.824Z" fill="#43AA13"/>
<path fillRule="evenodd" clipRule="evenodd" d="M113.059 29.2002C113.217 28.9328 113.296 28.6264 113.296 28.2808C113.296 27.7436 113.125 27.3286 112.781 27.036C112.44 26.7409 111.952 26.5934 111.317 26.5934H108.936V31.9243H110.046V30.0477H111.362C111.761 30.0477 112.105 29.9733 112.393 29.8245C112.682 29.6731 112.904 29.465 113.059 29.2002ZM111.193 27.4598C111.85 27.4598 112.179 27.7398 112.179 28.2997C112.179 28.5873 112.096 28.808 111.931 28.9618C111.765 29.1132 111.529 29.1889 111.223 29.1889H110.046V27.4598H111.193Z" fill="#43AA13"/>
<path d="M120.554 30.3882C120.554 30.9104 120.361 31.3101 119.975 31.5876C119.591 31.8625 119.026 32 118.282 32C116.94 32 116.158 31.5119 115.937 30.5358L117.01 30.358C117.083 30.6405 117.224 30.846 117.435 30.9747C117.646 31.1008 117.938 31.1638 118.312 31.1638C118.7 31.1638 118.991 31.1046 119.185 30.986C119.378 30.8675 119.474 30.6896 119.474 30.4525C119.474 30.3012 119.43 30.1763 119.343 30.078C119.255 29.9796 119.129 29.8976 118.966 29.8321C118.886 29.7993 118.768 29.7639 118.613 29.7261C118.457 29.6858 118.264 29.6416 118.033 29.5937C117.767 29.5306 117.559 29.4777 117.409 29.4348C117.258 29.3894 117.138 29.3465 117.047 29.3061C116.957 29.2633 116.869 29.2166 116.784 29.1662C116.596 29.0526 116.449 28.9013 116.344 28.7121C116.238 28.523 116.186 28.2871 116.186 28.0046C116.186 27.5229 116.365 27.1546 116.724 26.8998C117.085 26.6426 117.609 26.5139 118.297 26.5139C118.954 26.5139 119.447 26.6173 119.775 26.8242C120.106 27.031 120.32 27.3728 120.415 27.8495L119.339 27.997C119.284 27.7675 119.171 27.5947 119 27.4787C118.832 27.3627 118.59 27.3047 118.274 27.3047C117.938 27.3047 117.686 27.3576 117.518 27.4636C117.35 27.5695 117.266 27.7284 117.266 27.9403C117.266 28.079 117.301 28.1925 117.371 28.2808C117.444 28.3691 117.55 28.4448 117.691 28.5078C117.824 28.5684 118.108 28.6453 118.545 28.7386C118.798 28.7941 119.016 28.8471 119.2 28.8975C119.383 28.9454 119.529 28.9921 119.64 29.0375C119.75 29.0854 119.848 29.1359 119.933 29.1889C120.021 29.2418 120.096 29.2986 120.159 29.3591C120.287 29.4827 120.385 29.6303 120.452 29.8018C120.52 29.9708 120.554 30.1663 120.554 30.3882Z" fill="#43AA13"/>
<path d="M125.319 30.1082C125.061 30.7842 124.596 31.1222 123.923 31.1222C123.587 31.1222 123.302 31.0503 123.069 30.9066C122.838 30.7603 122.663 30.5471 122.542 30.2672C122.425 29.9872 122.366 29.6429 122.366 29.2343C122.366 28.6314 122.495 28.1736 122.753 27.8608C123.014 27.5481 123.395 27.3917 123.897 27.3917C124.226 27.3917 124.51 27.4711 124.751 27.63C124.994 27.7864 125.157 27.9983 125.24 28.2657L126.218 27.997C126.06 27.5102 125.786 27.142 125.394 26.8923C125.003 26.64 124.496 26.5139 123.874 26.5139C123.307 26.5139 122.828 26.6199 122.437 26.8317C122.046 27.0411 121.75 27.3475 121.549 27.7511C121.349 28.1547 121.248 28.6491 121.248 29.2343C121.248 29.8144 121.352 30.3113 121.56 30.725C121.771 31.1386 122.076 31.4552 122.475 31.6746C122.874 31.8915 123.356 32 123.923 32C124.485 32 124.967 31.8751 125.368 31.6254C125.772 31.3732 126.078 30.9898 126.286 30.4752L125.319 30.1082Z" fill="#43AA13"/>
<path d="M128.203 29.6391V31.9243H127.093V26.5934H128.203V28.7159H130.513V26.5934H131.623V31.9243H130.513V29.6391H128.203Z" fill="#43AA13"/>
<path fillRule="evenodd" clipRule="evenodd" d="M137.558 30.6909C137.782 30.2747 137.893 29.7892 137.893 29.2343C137.893 28.6693 137.787 28.1837 137.573 27.7776C137.36 27.3715 137.054 27.06 136.655 26.8431C136.257 26.6236 135.776 26.5139 135.214 26.5139C134.655 26.5139 134.175 26.6224 133.773 26.8393C133.375 27.0537 133.068 27.3639 132.855 27.77C132.645 28.1761 132.539 28.6642 132.539 29.2343C132.539 29.8043 132.646 30.2962 132.859 30.7098C133.072 31.1235 133.378 31.4426 133.777 31.6671C134.176 31.889 134.653 32 135.207 32C135.749 32 136.22 31.8852 136.622 31.6557C137.025 31.4262 137.338 31.1046 137.558 30.6909ZM136.354 27.8835C136.625 28.2089 136.761 28.6592 136.761 29.2343C136.761 29.8371 136.625 30.3025 136.354 30.6304C136.086 30.9583 135.703 31.1222 135.207 31.1222C134.888 31.1222 134.612 31.0466 134.379 30.8952C134.148 30.7414 133.97 30.5232 133.845 30.2407C133.719 29.9582 133.657 29.6227 133.657 29.2343C133.657 28.6541 133.792 28.2026 134.063 27.8798C134.334 27.5544 134.718 27.3917 135.214 27.3917C135.703 27.3917 136.084 27.5556 136.354 27.8835Z" fill="#43AA13"/>
<path fillRule="evenodd" clipRule="evenodd" d="M143.968 29.2343C143.968 29.7892 143.856 30.2747 143.633 30.6909C143.412 31.1046 143.1 31.4262 142.696 31.6557C142.295 31.8852 141.823 32 141.281 32C140.727 32 140.25 31.889 139.852 31.6671C139.453 31.4426 139.147 31.1235 138.934 30.7098C138.72 30.2962 138.614 29.8043 138.614 29.2343C138.614 28.6642 138.719 28.1761 138.93 27.77C139.143 27.3639 139.449 27.0537 139.848 26.8393C140.249 26.6224 140.729 26.5139 141.289 26.5139C141.851 26.5139 142.331 26.6236 142.73 26.8431C143.129 27.06 143.435 27.3715 143.648 27.7776C143.861 28.1837 143.968 28.6693 143.968 29.2343ZM142.835 29.2343C142.835 28.6592 142.7 28.2089 142.429 27.8835C142.158 27.5556 141.778 27.3917 141.289 27.3917C140.792 27.3917 140.408 27.5544 140.138 27.8798C139.867 28.2026 139.731 28.6541 139.731 29.2343C139.731 29.6227 139.794 29.9582 139.919 30.2407C140.045 30.5232 140.223 30.7414 140.454 30.8952C140.687 31.0466 140.963 31.1222 141.281 31.1222C141.778 31.1222 142.16 30.9583 142.429 30.6304C142.7 30.3025 142.835 29.8371 142.835 29.2343Z" fill="#43AA13"/>
<path d="M148.842 31.9243V31.0617H145.998V26.5934H144.888V31.9243H148.842Z" fill="#43AA13"/>
</svg>
